# xmcd
#
# Track frame offsets:
# 150
# 32211
# 45452
# 68283
# 84074
# 104100
# 121368
# 138611
# 152958
# 172665
# 186755
# 206597
# 229972
# 249602
# 267490
# 284924
# 305216
#
# Disc length: 4323 seconds
#
# Revision: 0
# Processed by: cddbd v1.5.2PL0 Copyright (c) Steve Scherf et al.
# Submitted via: CoinsHifi v1.9g contact@coinshifi.com
#
DISCID=fb10e111
DTITLE=crimson rose - old time rock and roll
DYEAR=2008
DGENRE=Acoustic
TTITLE0=one
TTITLE1=two
TTITLE2=three
TTITLE3=four
TTITLE4=five
TTITLE5=six
TTITLE6=seven
TTITLE7=eight
TTITLE8=nine
TTITLE9=ten
TTITLE10=eleven
TTITLE11=twelve
TTITLE12=thirteen
TTITLE13=fourteen
TTITLE14=fifteen
TTITLE15=sixteen
TTITLE16=seventeen
EXTD=
EXTT0=Live
EXTT1=Live
EXTT2=Live
EXTT3=Live
EXTT4=Live
EXTT5=Live
EXTT6=Live
EXTT7=Live
EXTT8=Live
EXTT9=Live
EXTT10=Live
EXTT11=Live
EXTT12=Live
EXTT13=Live
EXTT14=Live
EXTT15=Live
EXTT16=Live
PLAYORDER=
